<?xml version="1.0" standalone="no"?>
<!DOCTYPE svg PUBLIC "-//W3C//DTD SVG 1.1//EN" "http://www.w3.org/Graphics/SVG/1.1/DTD/svg11.dtd" >
<svg xmlns="http://www.w3.org/2000/svg">
<metadata>Generated by IcoMoon</metadata>
<defs>
<font id="icomoon" horiz-adv-x="1024">
<font-face units-per-em="1024" ascent="960" descent="-64" />
<missing-glyph horiz-adv-x="1024" />
<glyph unicode="&#x20;" horiz-adv-x="512" d="" />
<glyph unicode="&#xe900;" glyph-name="vk" horiz-adv-x="983" d="M883.876 660.846c5.734 19.046 0 33.014-27.116 33.014h-89.825c-22.856 0-33.3-12.083-39.035-25.354 0 0-45.67-111.37-110.387-183.584-20.89-21.012-30.433-27.648-41.82-27.648-5.693 0-13.967 6.636-13.967 25.682v177.891c0 22.856-6.595 33.014-25.641 33.014h-141.148c-14.254 0-22.856-10.568-22.856-20.644 0-21.627 32.358-26.624 35.676-87.572v-132.221c0-28.959-5.202-34.243-16.671-34.243-30.433 0-104.489 111.78-148.439 239.741-8.561 24.863-17.203 34.898-40.141 34.898h-89.784c-25.682 0-30.802-12.083-30.802-25.354 0-23.839 30.433-141.805 141.763-297.822 74.22-106.537 178.708-164.291 273.9-164.291 57.057 0 64.102 12.82 64.102 34.939v80.527c0 25.641 5.448 30.802 23.511 30.802 13.271 0 36.127-6.717 89.416-58.040 60.867-60.867 70.943-88.187 105.144-88.187h89.784c25.641 0 38.461 12.82 31.089 38.134-8.069 25.19-37.151 61.85-75.735 105.226-20.972 24.74-52.306 51.364-61.85 64.676-13.312 17.162-9.462 24.74 0 39.977 0.041-0.041 109.445 154.052 120.832 206.44z" />
<glyph unicode="&#xe901;" glyph-name="upload-outline" horiz-adv-x="983" d="M368.64 532.029v-245.76h245.76v245.76h163.84l-286.72 286.72-286.72-286.72h163.84zM491.52 704.062l90.112-90.112h-49.152v-245.76h-81.92v245.76h-49.152l90.112 90.112zM778.24 204.349h-573.44v-81.92h573.44v81.92z" />
<glyph unicode="&#xe902;" glyph-name="upload" horiz-adv-x="983" d="M368.64 286.269v245.76h-163.84l286.72 286.72 286.72-286.72h-163.84v-245.76h-245.76zM204.8 122.429v81.92h573.44v-81.92h-573.44z" />
<glyph unicode="&#xe903;" glyph-name="television-play" horiz-adv-x="983" d="M860.16 818.75h-737.28c-45.466 0-81.92-36.454-81.92-81.92v-491.52c0-21.725 8.631-42.562 23.994-57.926s36.2-23.994 57.926-23.994h204.8v-81.92h327.68v81.92h204.8c21.725 0 42.562 8.63 57.926 23.994s23.994 36.2 23.994 57.926v491.52c0 45.466-36.864 81.92-81.92 81.92zM860.16 245.309h-737.28v491.52h737.28v-491.52zM655.36 491.069l-286.72-163.84v327.68z" />
<glyph unicode="&#xe904;" glyph-name="telegram" horiz-adv-x="983" d="M846.438 789.379l-726.222-280.046c-49.562-19.907-49.275-47.555-9.093-59.884l186.45-58.163 431.392 272.181c20.398 12.411 39.035 5.734 23.716-7.864l-349.513-315.476-12.861-192.184c18.842 0 27.158 8.647 37.725 18.842l90.563 88.064 188.375-139.141c34.734-19.128 59.679-9.298 68.321 32.158l123.658 582.777c12.657 50.749-19.374 73.728-52.511 58.737z" />
<glyph unicode="&#xe905;" glyph-name="send-outline" horiz-adv-x="983" d="M163.84 694.641l307.2-131.891-307.2 40.96v90.931zM471.040 337.469l-307.2-131.891v90.931l307.2 40.96zM81.92 818.75v-286.72l614.4-81.92-614.4-81.92v-286.72l860.16 368.64-860.16 368.64z" />
<glyph unicode="&#xe906;" glyph-name="send" horiz-adv-x="983" d="M81.92 81.469l860.16 368.64-860.16 368.64v-286.72l614.4-81.92-614.4-81.92v-286.72z" />
<glyph unicode="&#xe907;" glyph-name="school-outline" horiz-adv-x="983" d="M491.52 818.75l-450.56-245.76 163.84-89.293v-245.76l286.72-156.467 286.72 156.467v245.76l81.92 44.646v-283.034h81.92v327.68l-450.56 245.76zM770.867 572.99l-279.347-152.372-279.347 152.372 279.347 152.371 279.347-152.371zM696.32 286.269l-204.8-111.411-204.8 111.411v152.781l204.8-111.821 204.8 111.821v-152.781z" />
<glyph unicode="&#xe908;" glyph-name="repeat-variant" horiz-adv-x="983" d="M245.76 706.11l174.080-174.080h-133.12v-245.76h266.24l81.92-81.92h-348.16c-21.726 0-42.563 8.63-57.926 23.994s-23.994 36.2-23.994 57.926v245.76h-133.12l174.080 174.080zM737.28 194.109l-174.080 174.080h133.12v245.76h-266.24l-81.92 81.92h348.16c21.725 0 42.562-8.631 57.926-23.994s23.994-36.2 23.994-57.926v-245.76h133.12l-174.080-174.080z" />
<glyph unicode="&#xe909;" glyph-name="repeat" horiz-adv-x="983" d="M696.32 245.309h-409.6v122.88l-163.84-163.84 163.84-163.84v122.88h491.52v245.76h-81.92v-163.84zM286.72 654.91h409.6v-122.88l163.84 163.84-163.84 163.84v-122.88h-491.52v-245.76h81.92v163.84z" />
<glyph unicode="&#xe90a;" glyph-name="plus-thick" horiz-adv-x="983" d="M819.2 368.189h-245.76v-245.76h-163.84v245.76h-245.76v163.84h245.76v245.76h163.84v-245.76h245.76v-163.84z" />
<glyph unicode="&#xe90b;" glyph-name="plus-circle-outline" horiz-adv-x="983" d="M491.52 122.429c-180.634 0-327.68 147.046-327.68 327.68s147.046 327.68 327.68 327.68c180.634 0 327.68-147.046 327.68-327.68s-147.046-327.68-327.68-327.68zM491.52 859.71c-53.789 0-107.052-10.594-156.747-31.179s-94.849-50.755-132.884-88.79c-76.815-76.815-119.969-180.998-119.969-289.631s43.154-212.816 119.969-289.632c38.035-38.031 83.189-68.202 132.884-88.789 49.695-20.582 102.958-31.179 156.747-31.179 108.634 0 212.816 43.155 289.632 119.968 76.812 76.816 119.968 180.998 119.968 289.632 0 53.789-10.596 107.053-31.179 156.748-20.586 49.695-50.754 94.849-88.789 132.884s-83.19 68.206-132.887 88.79c-49.693 20.584-102.957 31.179-156.746 31.179zM532.48 654.91h-81.92v-163.84h-163.84v-81.92h163.84v-163.84h81.92v163.84h163.84v81.92h-163.84v163.84z" />
<glyph unicode="&#xe90c;" glyph-name="plus" horiz-adv-x="983" d="M778.24 409.149h-245.76v-245.76h-81.92v245.76h-245.76v81.92h245.76v245.76h81.92v-245.76h245.76v-81.92z" />
<glyph unicode="&#xe90d;" glyph-name="play-circle-outline" horiz-adv-x="983" d="M491.52 122.429c-180.634 0-327.68 147.046-327.68 327.68s147.046 327.68 327.68 327.68c180.634 0 327.68-147.046 327.68-327.68s-147.046-327.68-327.68-327.68zM491.52 859.71c-53.789 0-107.052-10.594-156.747-31.179s-94.849-50.755-132.884-88.79c-76.815-76.815-119.969-180.998-119.969-289.631s43.154-212.816 119.969-289.632c38.035-38.031 83.189-68.202 132.884-88.789 49.695-20.582 102.958-31.179 156.747-31.179 108.634 0 212.816 43.155 289.632 119.968 76.812 76.816 119.968 180.998 119.968 289.632 0 53.789-10.596 107.053-31.179 156.748-20.586 49.695-50.754 94.849-88.789 132.884s-83.19 68.206-132.887 88.79c-49.693 20.584-102.957 31.179-156.746 31.179zM409.6 265.789l245.76 184.32-245.76 184.32v-368.64z" />
<glyph unicode="&#xe90e;" glyph-name="play-circle" horiz-adv-x="983" d="M409.6 265.789v368.64l245.76-184.32-245.76-184.32zM491.52 859.71c-53.789 0-107.052-10.594-156.747-31.179s-94.849-50.755-132.884-88.79c-76.815-76.815-119.969-180.998-119.969-289.631s43.154-212.816 119.969-289.632c38.035-38.031 83.189-68.202 132.884-88.789 49.695-20.582 102.958-31.179 156.747-31.179 108.634 0 212.816 43.155 289.632 119.968 76.812 76.816 119.968 180.998 119.968 289.632 0 53.789-10.596 107.053-31.179 156.748-20.586 49.695-50.754 94.849-88.789 132.884s-83.19 68.206-132.887 88.79c-49.693 20.584-102.957 31.179-156.746 31.179z" />
<glyph unicode="&#xe90f;" glyph-name="play-box-outline" horiz-adv-x="983" d="M778.24 163.389h-573.44v573.44h573.44v-573.44zM778.24 818.75h-573.44c-21.726 0-42.563-8.631-57.926-23.994s-23.994-36.2-23.994-57.926v-573.44c0-21.725 8.631-42.562 23.994-57.926s36.2-23.994 57.926-23.994h573.44c21.725 0 42.562 8.63 57.926 23.994s23.994 36.2 23.994 57.926v573.44c0 45.466-36.864 81.92-81.92 81.92zM409.6 613.95v-327.68l204.8 163.84-204.8 163.84z" />
<glyph unicode="&#xe910;" glyph-name="play" horiz-adv-x="983" d="M327.68 731.1v-573.441l450.56 286.72-450.56 286.721z" />
<glyph unicode="&#xe911;" glyph-name="newspaper-variant-outline" horiz-adv-x="983" d="M819.2 736.83v-573.44h-655.36v573.44h655.36zM819.2 818.75h-655.36c-45.466 0-81.92-36.454-81.92-81.92v-573.44c0-45.466 36.454-81.92 81.92-81.92h655.36c45.466 0 81.92 36.454 81.92 81.92v573.44c0 45.466-36.454 81.92-81.92 81.92zM737.28 327.229h-491.52v-81.92h491.52v81.92zM409.6 654.91h-163.84v-245.76h163.84v245.76zM491.52 572.99h245.76v81.92h-245.76v-81.92zM737.28 491.069h-245.76v-81.92h245.76v81.92z" />
<glyph unicode="&#xe912;" glyph-name="motion-play-outline" horiz-adv-x="983" d="M409.6 265.789l245.76 184.32-245.76 184.32v-368.64zM901.12 450.109c0 226.919-182.682 409.6-409.6 409.6-47.923 0-94.208-7.782-138.445-22.938l28.672-79.462c34.816 13.926 71.27 21.709 109.773 21.709 180.634 0 328.909-148.275 328.909-328.909s-148.275-328.909-328.909-328.909c-180.634 0-328.909 148.275-328.909 328.909 0 38.502 7.782 77.005 21.709 111.412l-79.462 27.034c-15.155-44.237-22.938-90.522-22.938-138.445 0-226.918 182.682-409.6 409.6-409.6s409.6 182.682 409.6 409.6zM224.051 779.019c34.816 0 62.669-29.082 62.669-61.44 0-34.816-27.853-62.669-62.669-62.669-32.358 0-61.44 27.853-61.44 62.669 0 32.358 29.082 61.44 61.44 61.44z" />
<glyph unicode="&#xe913;" glyph-name="message" horiz-adv-x="983" d="M819.2 859.71h-655.36c-21.726 0-42.563-8.631-57.926-23.994s-23.994-36.2-23.994-57.926v-737.28l163.84 163.84h573.44c21.725 0 42.562 8.63 57.926 23.994s23.994 36.2 23.994 57.926v491.52c0 45.466-36.864 81.92-81.92 81.92z" />
<glyph unicode="&#xe914;" glyph-name="magnify" horiz-adv-x="983" d="M389.12 818.75c70.611 0 138.33-28.050 188.26-77.98s77.98-117.649 77.98-188.26c0-65.946-24.166-126.567-63.898-173.261l11.059-11.059h32.358l204.8-204.8-61.44-61.44-204.8 204.8v32.358l-11.059 11.059c-46.694-39.731-107.315-63.898-173.261-63.898-70.611 0-138.331 28.049-188.26 77.98s-77.98 117.649-77.98 188.261c0 70.611 28.050 138.331 77.98 188.26s117.649 77.98 188.26 77.98zM389.12 736.83c-102.4 0-184.32-81.92-184.32-184.32s81.92-184.32 184.32-184.32c102.4 0 184.32 81.92 184.32 184.32s-81.92 184.32-184.32 184.32z" />
<glyph unicode="&#xe915;" glyph-name="lock-outline" horiz-adv-x="983" d="M491.52 245.309c-45.466 0-81.92 36.864-81.92 81.92 0 45.466 36.454 81.92 81.92 81.92 21.725 0 42.562-8.63 57.926-23.994 15.364-15.36 23.994-36.2 23.994-57.926s-8.63-42.562-23.994-57.926c-15.364-15.364-36.2-23.994-57.926-23.994zM737.28 122.429v409.6h-491.52v-409.6h491.52zM737.28 613.95c21.725 0 42.562-8.631 57.926-23.994s23.994-36.2 23.994-57.927v-409.6c0-21.725-8.63-42.562-23.994-57.926s-36.2-23.994-57.926-23.994h-491.52c-45.466 0-81.92 36.864-81.92 81.92v409.6c0 45.466 36.454 81.92 81.92 81.92h40.96v81.92c0 54.317 21.577 106.408 59.985 144.816s90.498 59.984 144.815 59.984c26.894 0 53.527-5.297 78.373-15.589s47.423-25.378 66.441-44.395c19.018-19.018 34.103-41.594 44.397-66.442s15.589-51.479 15.589-78.374v-81.92h40.96zM491.52 818.75c-32.588 0-63.844-12.946-86.889-35.991s-35.991-54.299-35.991-86.889v-81.92h245.76v81.92c0 32.59-12.947 63.845-35.992 86.889s-54.301 35.991-86.888 35.991z" />
<glyph unicode="&#xe916;" glyph-name="lock" horiz-adv-x="983" d="M491.52 245.309c21.725 0 42.562 8.63 57.926 23.994s23.994 36.2 23.994 57.926c0 45.466-36.864 81.92-81.92 81.92-21.725 0-42.562-8.63-57.926-23.994-15.364-15.36-23.994-36.2-23.994-57.926s8.63-42.562 23.994-57.926c15.364-15.364 36.2-23.994 57.926-23.994zM737.28 613.95c21.725 0 42.562-8.631 57.926-23.994s23.994-36.2 23.994-57.927v-409.6c0-21.725-8.63-42.562-23.994-57.926s-36.2-23.994-57.926-23.994h-491.52c-21.726 0-42.563 8.63-57.926 23.994s-23.994 36.2-23.994 57.926v409.6c0 45.466 36.864 81.92 81.92 81.92h40.96v81.92c0 54.317 21.577 106.408 59.985 144.816s90.498 59.984 144.815 59.984c26.894 0 53.527-5.297 78.373-15.589s47.423-25.378 66.441-44.395c19.018-19.018 34.103-41.594 44.397-66.442s15.589-51.479 15.589-78.374v-81.92h40.96zM491.52 818.75c-32.588 0-63.844-12.946-86.889-35.991s-35.991-54.299-35.991-86.889v-81.92h245.76v81.92c0 32.59-12.947 63.845-35.992 86.889s-54.301 35.991-86.888 35.991z" />
<glyph unicode="&#xe917;" glyph-name="link-variant" horiz-adv-x="983" d="M433.762 392.352c16.794-15.974 16.794-42.189 0-58.163-15.974-15.974-42.187-15.974-58.161 0-79.872 79.872-79.872 209.715 0 289.589l144.996 144.999c79.872 79.872 209.715 79.872 289.587 0s79.872-209.716 0-289.589l-61.030-61.030c0.41 33.587-4.915 67.174-16.384 99.123l19.251 19.661c48.333 47.925 48.333 125.749 0 173.672-47.923 48.333-125.747 48.333-173.67 0l-144.589-144.589c-48.331-47.925-48.331-125.749 0-173.672zM549.27 566.024c15.974 15.974 42.189 15.974 58.163 0 79.872-79.874 79.872-209.717 0-289.589l-144.998-144.998c-79.87-79.872-209.713-79.872-289.585 0s-79.872 209.715 0 289.587l61.030 61.030c-0.41-33.587 4.915-67.174 16.384-99.533l-19.251-19.251c-48.333-47.923-48.333-125.747 0-173.67 47.923-48.333 125.747-48.333 173.67 0l144.587 144.589c48.333 47.923 48.333 125.747 0 173.67-16.794 15.974-16.794 42.189 0 58.165z" />
<glyph unicode="&#xe918;" glyph-name="information-variant" horiz-adv-x="983" d="M552.956 777.79c-16.294 0-31.924-6.473-43.446-17.995s-17.994-27.15-17.994-43.445c0-16.295 6.472-31.922 17.994-43.445s27.152-17.995 43.446-17.995c16.294 0 31.92 6.473 43.442 17.995s17.998 27.15 17.998 43.445c0 16.295-6.476 31.923-17.998 43.445s-27.148 17.995-43.442 17.995zM538.21 582.411c-48.742-4.096-181.863-110.183-181.863-110.183-8.192-6.144-5.734-5.734 0.819-17.203 6.554-11.059 5.734-11.878 13.517-6.554 8.192 5.325 21.709 13.926 44.238 27.853 86.835 55.706 13.926-72.909-23.348-289.587-14.746-107.315 81.921-52.019 106.906-35.635 24.576 15.974 90.522 61.44 97.075 65.946 9.011 6.144 2.458 11.059-4.506 21.299-4.915 6.963-9.83 2.048-9.83 2.048-26.624-17.613-75.366-54.477-81.92-31.13-7.782 23.347 42.189 183.501 69.632 293.683 4.506 26.214 16.794 83.559-30.72 79.463z" />
<glyph unicode="&#xe919;" glyph-name="information-outline" horiz-adv-x="983" d="M450.56 572.99h81.92v81.92h-81.92v-81.92zM491.52 122.429c-180.634 0-327.68 147.046-327.68 327.68s147.046 327.68 327.68 327.68c180.634 0 327.68-147.046 327.68-327.68s-147.046-327.68-327.68-327.68zM491.52 859.71c-53.789 0-107.052-10.594-156.747-31.179s-94.849-50.755-132.884-88.79c-76.815-76.815-119.969-180.998-119.969-289.631s43.154-212.816 119.969-289.632c38.035-38.031 83.189-68.202 132.884-88.789 49.695-20.582 102.958-31.179 156.747-31.179 108.634 0 212.816 43.155 289.632 119.968 76.812 76.816 119.968 180.998 119.968 289.632 0 53.789-10.596 107.053-31.179 156.748-20.586 49.695-50.754 94.849-88.789 132.884s-83.19 68.206-132.887 88.79c-49.693 20.584-102.957 31.179-156.746 31.179zM450.56 245.309h81.92v245.76h-81.92v-245.76z" />
<glyph unicode="&#xe91a;" glyph-name="information" horiz-adv-x="983" d="M532.48 572.99h-81.92v81.92h81.92v-81.92zM532.48 245.309h-81.92v245.76h81.92v-245.76zM491.52 859.71c-53.789 0-107.052-10.594-156.747-31.179s-94.849-50.755-132.884-88.79c-76.815-76.815-119.969-180.998-119.969-289.631s43.154-212.816 119.969-289.632c38.035-38.031 83.189-68.202 132.884-88.789 49.695-20.582 102.958-31.179 156.747-31.179 108.634 0 212.816 43.155 289.632 119.968 76.812 76.816 119.968 180.998 119.968 289.632 0 53.789-10.596 107.053-31.179 156.748-20.586 49.695-50.754 94.849-88.789 132.884s-83.19 68.206-132.887 88.79c-49.693 20.584-102.957 31.179-156.746 31.179z" />
<glyph unicode="&#xe91b;" glyph-name="heart" horiz-adv-x="983" d="M491.52 67.133l-59.392 54.067c-210.944 191.283-350.208 317.85-350.208 472.269 0 126.566 99.123 225.28 225.28 225.28 71.27 0 139.674-33.178 184.32-85.197 44.646 52.019 113.050 85.197 184.32 85.197 126.157 0 225.28-98.714 225.28-225.28 0-154.42-139.264-280.986-350.208-472.269l-59.392-54.067z" />
<glyph unicode="&#xe91c;" glyph-name="file-upload-outline" horiz-adv-x="983" d="M573.44 859.71l245.76-245.76v-491.52c0-21.725-8.63-42.562-23.994-57.926s-36.2-23.994-57.926-23.994h-491.52c-21.726 0-42.563 8.63-57.926 23.994s-23.994 36.2-23.994 57.926v655.36c0 21.727 8.631 42.563 23.994 57.926s36.2 23.994 57.926 23.994h327.68zM737.28 122.429v450.56h-204.8v204.8h-286.72v-655.36h491.52zM491.52 450.109l163.84-163.84h-102.4v-122.88h-122.88v122.88h-102.4l163.84 163.84z" />
<glyph unicode="&#xe91d;" glyph-name="file-upload" horiz-adv-x="983" d="M573.44 859.71h-327.68c-21.726 0-42.563-8.631-57.926-23.994s-23.994-36.2-23.994-57.926v-655.36c0-21.725 8.631-42.562 23.994-57.926s36.2-23.994 57.926-23.994h491.52c21.725 0 42.562 8.63 57.926 23.994s23.994 36.2 23.994 57.926v491.52l-245.76 245.76zM552.96 286.269v-122.88h-122.88v122.88h-102.4l163.84 163.84 163.84-163.84h-102.4zM532.48 572.99v225.28l225.28-225.28h-225.28z" />
<glyph unicode="&#xe91e;" glyph-name="facebook" horiz-adv-x="983" d="M548.741 81.596v335.708h113.254l16.835 131.441h-130.089v83.722c0 37.929 10.568 63.898 65.004 63.898h68.977v117.187c-33.559 3.597-67.293 5.333-101.048 5.202-100.106 0-168.837-61.112-168.837-173.302v-96.46h-112.516v-131.441h112.762v-335.954h135.66z" />
<glyph unicode="&#xe91f;" glyph-name="eye-outline" horiz-adv-x="983" d="M491.52 572.99c32.588 0 63.844-12.946 86.888-35.992 23.044-23.044 35.992-54.297 35.992-86.888 0-32.588-12.947-63.844-35.992-86.888s-54.301-35.992-86.888-35.992c-32.588 0-63.844 12.947-86.889 35.992s-35.991 54.301-35.991 86.888c0 32.592 12.946 63.844 35.991 86.888 23.045 23.046 54.301 35.992 86.889 35.992zM491.52 757.31c204.8 0 379.699-127.386 450.56-307.2-70.861-179.814-245.76-307.2-450.56-307.2s-379.699 127.386-450.56 307.2c70.861 179.815 245.76 307.2 450.56 307.2zM130.253 450.109c67.584-137.626 207.258-225.28 361.267-225.28s293.683 87.654 361.267 225.28c-67.584 137.626-207.258 225.28-361.267 225.28s-293.683-87.654-361.267-225.28z" />
<glyph unicode="&#xe920;" glyph-name="eye-off-outline" horiz-adv-x="983" d="M81.92 725.771l52.429 52.019 684.851-684.852-52.019-52.429-126.157 126.157c-47.104-15.565-97.075-23.757-149.504-23.757-204.8 0-379.699 127.386-450.56 307.2 28.262 72.090 73.318 135.578 130.662 185.959l-89.702 89.702zM491.52 572.99c32.588 0 63.844-12.946 86.888-35.992 23.044-23.044 35.992-54.297 35.992-86.888 0-14.336-2.458-28.262-6.963-40.96l-156.877 156.877c12.698 4.506 26.624 6.963 40.96 6.963zM491.52 757.31c204.8 0 379.699-127.386 450.56-307.2-33.587-85.197-90.522-158.925-163.84-212.582l-58.163 58.573c55.706 38.502 101.581 90.931 132.71 154.010-67.584 137.626-207.258 225.28-361.267 225.28-44.646 0-88.474-7.373-129.434-20.48l-63.078 62.669c58.982 25.395 124.109 39.731 192.512 39.731zM130.253 450.109c67.584-137.626 207.258-225.28 361.267-225.28 28.262 0 56.115 2.867 81.92 8.602l-93.389 93.798c-58.573 6.144-105.267 52.838-111.411 111.411l-139.264 139.674c-40.55-34.816-74.547-78.234-99.123-128.205z" />
<glyph unicode="&#xe921;" glyph-name="eye-off" horiz-adv-x="983" d="M484.557 572.99l129.843-129.434c0 2.048 0 4.506 0 6.554 0 32.592-12.947 63.844-35.992 86.888-23.044 23.046-54.301 35.992-86.888 35.992-2.458 0-4.506 0-6.963 0zM308.429 540.221l63.488-63.488c-2.048-8.602-3.277-17.203-3.277-26.624 0-32.588 12.946-63.844 35.991-86.888s54.301-35.992 86.889-35.992c9.011 0 18.022 1.229 26.624 3.277l63.488-63.488c-27.443-13.517-57.754-21.709-90.112-21.709-54.317 0-106.408 21.578-144.815 59.986s-59.985 90.497-59.985 144.814c0 32.358 8.192 62.669 21.709 90.112zM81.92 766.731l111.821-111.821c-67.584-53.248-120.832-122.88-152.781-204.8 70.861-179.814 245.76-307.2 450.56-307.2 63.488 0 124.109 12.288 179.405 34.406l17.613-17.203 119.603-119.603 52.019 52.019-726.221 726.221-52.019-52.019zM491.52 654.91c54.317 0 106.41-21.577 144.814-59.984 38.408-38.407 59.986-90.499 59.986-144.816 0-26.214-5.325-51.61-14.746-74.547l120.013-120.013c61.44 51.2 110.592 118.374 140.493 194.56-70.861 179.815-245.76 307.2-450.56 307.2-57.344 0-112.23-10.24-163.84-28.672l88.883-88.064c23.347 9.011 48.333 14.336 74.957 14.336z" />
<glyph unicode="&#xe922;" glyph-name="eye" horiz-adv-x="983" d="M491.52 572.99c-32.588 0-63.844-12.946-86.889-35.992-23.045-23.044-35.991-54.297-35.991-86.888 0-32.588 12.946-63.844 35.991-86.888s54.301-35.992 86.889-35.992c32.588 0 63.844 12.947 86.888 35.992s35.992 54.301 35.992 86.888c0 32.592-12.947 63.844-35.992 86.888-23.044 23.046-54.301 35.992-86.888 35.992zM491.52 245.309c-54.317 0-106.408 21.578-144.815 59.986s-59.985 90.497-59.985 144.814c0 54.317 21.577 106.409 59.985 144.816s90.498 59.984 144.815 59.984c54.317 0 106.41-21.577 144.814-59.984 38.408-38.407 59.986-90.499 59.986-144.816s-21.578-106.406-59.986-144.814c-38.404-38.408-90.497-59.986-144.814-59.986zM491.52 757.31c-204.8 0-379.699-127.386-450.56-307.2 70.861-179.814 245.76-307.2 450.56-307.2s379.699 127.386 450.56 307.2c-70.861 179.815-245.76 307.2-450.56 307.2z" />
<glyph unicode="&#xe923;" glyph-name="email-outline" horiz-adv-x="983" d="M901.12 695.87c0 45.056-36.864 81.92-81.92 81.92h-655.36c-45.056 0-81.92-36.864-81.92-81.92v-491.52c0-45.056 36.864-81.92 81.92-81.92h655.36c45.056 0 81.92 36.864 81.92 81.92v491.52zM819.2 695.87l-327.68-204.8-327.68 204.8h655.36zM819.2 204.349h-655.36v409.6l327.68-204.8 327.68 204.8v-409.6z" />
<glyph unicode="&#xe924;" glyph-name="email-fast-outline" horiz-adv-x="983" d="M901.12 716.35h-532.48c-45.056 0-81.92-36.864-81.92-81.92v-368.64c0-45.466 36.864-81.92 81.92-81.92h532.48c45.466 0 81.92 36.454 81.92 81.92v368.64c0 45.056-36.454 81.92-81.92 81.92zM901.12 265.789h-532.48v300.237l266.24-136.397 266.24 136.397v-300.237zM634.88 498.852l-266.24 135.578h532.48l-266.24-135.578zM204.8 265.789c0-6.963 1.229-13.517 2.048-20.48h-165.888c-22.61 0-40.96 18.432-40.96 40.96s18.35 40.96 40.96 40.96h163.84v-61.44zM122.88 654.91h83.968c-0.819-6.963-2.048-13.517-2.048-20.48v-61.44h-81.92c-22.528 0-40.96 18.432-40.96 40.96s18.432 40.96 40.96 40.96zM40.96 450.109c0 22.528 18.432 40.96 40.96 40.96h122.88v-81.92h-122.88c-22.528 0-40.96 18.432-40.96 40.96z" />
<glyph unicode="&#xe925;" glyph-name="email-fast" horiz-adv-x="983" d="M901.12 716.35h-532.48c-45.056 0-81.92-36.864-81.92-81.92v-368.64c0-45.466 36.864-81.92 81.92-81.92h532.48c45.466 0 81.92 36.454 81.92 81.92v368.64c0 45.056-36.454 81.92-81.92 81.92zM901.12 566.027l-266.24-136.397-266.24 136.397v68.403l266.24-135.578 266.24 135.578v-68.403zM204.8 265.789c0-6.963 1.229-13.517 2.048-20.48h-165.888c-22.61 0-40.96 18.432-40.96 40.96s18.35 40.96 40.96 40.96h163.84v-61.44zM122.88 654.91h83.968c-0.819-6.963-2.048-13.517-2.048-20.48v-61.44h-81.92c-22.528 0-40.96 18.432-40.96 40.96s18.432 40.96 40.96 40.96zM40.96 450.109c0 22.528 18.432 40.96 40.96 40.96h122.88v-81.92h-122.88c-22.528 0-40.96 18.432-40.96 40.96z" />
<glyph unicode="&#xe926;" glyph-name="email" horiz-adv-x="983" d="M819.2 613.95l-327.68-204.8-327.68 204.8v81.92l327.68-204.8 327.68 204.8v-81.92zM819.2 777.79h-655.36c-45.466 0-81.92-36.454-81.92-81.92v-491.52c0-21.725 8.631-42.562 23.994-57.926s36.2-23.994 57.926-23.994h655.36c21.725 0 42.562 8.63 57.926 23.994s23.994 36.2 23.994 57.926v491.52c0 45.466-36.864 81.92-81.92 81.92z" />
<glyph unicode="&#xe927;" glyph-name="dots-horizontal" horiz-adv-x="983" d="M655.36 450.109c0 21.725 8.63 42.566 23.994 57.926 15.364 15.364 36.2 23.994 57.926 23.994s42.562-8.63 57.926-23.994c15.364-15.36 23.994-36.2 23.994-57.926s-8.63-42.562-23.994-57.926c-15.364-15.364-36.2-23.994-57.926-23.994s-42.562 8.63-57.926 23.994c-15.364 15.364-23.994 36.2-23.994 57.926zM409.6 450.109c0 21.725 8.63 42.566 23.994 57.926 15.364 15.364 36.2 23.994 57.926 23.994s42.562-8.63 57.926-23.994c15.364-15.36 23.994-36.2 23.994-57.926s-8.63-42.562-23.994-57.926c-15.364-15.364-36.2-23.994-57.926-23.994s-42.562 8.63-57.926 23.994c-15.364 15.364-23.994 36.2-23.994 57.926zM163.84 450.109c0 21.725 8.631 42.566 23.994 57.926 15.363 15.364 36.2 23.994 57.926 23.994s42.563-8.63 57.926-23.994c15.363-15.36 23.994-36.2 23.994-57.926s-8.631-42.562-23.994-57.926c-15.363-15.364-36.2-23.994-57.926-23.994s-42.563 8.63-57.926 23.994c-15.363 15.364-23.994 36.2-23.994 57.926z" />
<glyph unicode="&#xe928;" glyph-name="crown" horiz-adv-x="983" d="M757.76 204.349h-532.48c-11.264 0-20.48-9.216-20.48-20.48v-40.96c0-11.264 9.216-20.48 20.48-20.48h532.48c11.264 0 20.48 9.216 20.48 20.48v40.96c0 11.264-9.216 20.48-20.48 20.48zM839.68 613.95c-33.919 0-61.44-27.52-61.44-61.44 0-9.089 2.048-17.535 5.632-25.342l-92.672-55.554c-19.71-11.776-45.183-5.12-56.578 14.848l-104.317 182.528c13.693 11.264 22.655 28.16 22.655 47.36 0 33.92-27.521 61.44-61.44 61.44s-61.44-27.52-61.44-61.44c0-19.2 8.962-36.096 22.655-47.36l-104.319-182.528c-11.392-19.968-36.992-26.624-56.576-14.848l-92.544 55.554c3.456 7.68 5.632 16.253 5.632 25.342 0 33.92-27.52 61.44-61.44 61.44s-61.568-27.52-61.568-61.44c0-33.919 27.52-61.44 61.44-61.44 3.328 0 6.656 0.512 9.856 1.024l92.544-246.784h491.52l92.545 246.784c3.199-0.512 6.529-1.024 9.855-1.024 33.919 0 61.44 27.521 61.44 61.44s-27.521 61.44-61.44 61.44z" />
<glyph unicode="&#xe929;" glyph-name="cloud-upload-outline" horiz-adv-x="983" d="M792.576 530.391c-27.853 141.312-151.962 247.399-301.056 247.399-118.374 0-221.184-67.174-272.384-165.478-123.29-13.107-219.136-117.556-219.136-244.122 0-65.18 25.892-127.689 71.981-173.777s108.599-71.983 173.779-71.983h532.48c26.894 0 53.527 5.296 78.373 15.589s47.423 25.379 66.441 44.397c19.018 19.018 34.103 41.595 44.397 66.441s15.589 51.479 15.589 78.373c0 108.134-83.968 195.789-190.464 203.162zM778.24 204.349h-532.48c-43.453 0-85.126 17.261-115.852 47.989-30.726 30.724-47.988 72.397-47.988 115.851 0 83.968 62.669 154.010 145.818 162.611l43.827 4.506 20.48 38.912c38.912 74.957 115.098 121.651 199.475 121.651 107.315 0 199.885-76.186 220.774-181.453l12.288-61.44 62.669-4.506c63.898-4.096 113.869-57.754 113.869-121.242 0-32.588-12.947-63.844-35.992-86.888s-54.301-35.992-86.888-35.992zM327.68 409.149h104.448v-122.88h118.784v122.88h104.448l-163.84 163.84-163.84-163.84z" />
<glyph unicode="&#xe92a;" glyph-name="cloud-upload" horiz-adv-x="983" d="M573.44 409.149v-163.84h-163.84v163.84h-122.88l204.8 204.8 204.8-204.8h-122.88zM792.576 530.801c-27.853 140.903-151.962 246.989-301.056 246.989-118.374 0-221.184-67.174-272.384-165.069-123.29-13.517-219.136-117.556-219.136-244.532 0-65.18 25.892-127.689 71.981-173.777s108.599-71.983 173.779-71.983h532.48c26.894 0 53.527 5.296 78.373 15.589s47.423 25.379 66.441 44.397c19.018 19.018 34.103 41.595 44.397 66.441s15.589 51.479 15.589 78.373c0 108.134-83.968 195.789-190.464 203.571z" />
<glyph unicode="&#xe92b;" glyph-name="close-circle-outline" horiz-adv-x="983" d="M491.52 122.429c-180.634 0-327.68 147.046-327.68 327.68s147.046 327.68 327.68 327.68c180.634 0 327.68-147.046 327.68-327.68s-147.046-327.68-327.68-327.68zM491.52 859.71c-226.509 0-409.6-183.091-409.6-409.6s183.091-409.6 409.6-409.6c226.509 0 409.6 183.091 409.6 409.6s-183.091 409.6-409.6 409.6zM597.606 613.95l-106.086-106.087-106.086 106.087-57.754-57.754 106.086-106.087-106.086-106.086 57.754-57.754 106.086 106.086 106.086-106.086 57.754 57.754-106.086 106.086 106.086 106.087-57.754 57.754z" />
<glyph unicode="&#xe92c;" glyph-name="close-circle" horiz-adv-x="983" d="M491.52 859.71c226.509 0 409.6-183.091 409.6-409.6s-183.091-409.6-409.6-409.6c-226.509 0-409.6 183.091-409.6 409.6s183.091 409.6 409.6 409.6zM638.566 654.91l-147.046-147.047-147.046 147.047-57.754-57.754 147.046-147.047-147.046-147.046 57.754-57.754 147.046 147.046 147.046-147.046 57.754 57.754-147.046 147.046 147.046 147.047-57.754 57.754z" />
<glyph unicode="&#xe92d;" glyph-name="close" horiz-adv-x="983" d="M778.24 679.076l-57.754 57.754-228.966-228.967-228.966 228.967-57.754-57.754 228.966-228.967-228.966-228.966 57.754-57.754 228.966 228.966 228.966-228.966 57.754 57.754-228.966 228.966 228.966 228.967z" />
<glyph unicode="&#xe92e;" glyph-name="chevron-up" horiz-adv-x="983" d="M303.514 310.436l188.006 187.597 188.006-187.597 57.754 57.754-245.76 245.76-245.76-245.76 57.754-57.754z" />
<glyph unicode="&#xe92f;" glyph-name="chevron-right" horiz-adv-x="983" d="M351.846 262.513l187.597 187.597-187.597 188.007 57.754 57.754 245.76-245.76-245.76-245.76-57.754 58.163z" />
<glyph unicode="&#xe930;" glyph-name="chevron-left" horiz-adv-x="983" d="M631.194 262.513l-187.597 187.597 187.597 188.007-57.754 57.754-245.76-245.76 245.76-245.76 57.754 58.163z" />
<glyph unicode="&#xe931;" glyph-name="chevron-down" horiz-adv-x="983" d="M303.514 590.19l188.006-188.008 188.006 188.008 57.754-58.165-245.76-245.76-245.76 245.76 57.754 58.165z" />
<glyph unicode="&#xe932;" glyph-name="checkbox-marked-circle-outline" horiz-adv-x="983" d="M819.2 450.109c0-86.905-34.525-170.254-95.973-231.703-61.452-61.452-144.802-95.977-231.707-95.977-86.906 0-170.253 34.525-231.705 95.977-61.452 61.448-95.975 144.798-95.975 231.703s34.523 170.254 95.975 231.705c61.452 61.452 144.799 95.975 231.705 95.975 31.13 0 61.44-4.506 90.112-12.698l64.307 64.307c-47.514 19.661-99.533 30.31-154.419 30.31-53.789 0-107.052-10.594-156.747-31.179s-94.849-50.755-132.884-88.79c-76.815-76.815-119.969-180.998-119.969-289.631s43.154-212.816 119.969-289.632c38.035-38.031 83.189-68.202 132.884-88.789 49.695-20.582 102.958-31.179 156.747-31.179 108.634 0 212.816 43.155 289.632 119.968 76.812 76.816 119.968 180.998 119.968 289.632h-81.92zM323.994 528.753l-57.754-58.163 184.32-184.32 409.6 409.6-57.754 58.163-351.846-351.847-126.566 126.566z" />
<glyph unicode="&#xe933;" glyph-name="check-bold" horiz-adv-x="983" d="M368.642 105.23l-254.362 254.362 115.917 115.917 138.445-138.854 404.683 405.096 115.917-115.917-520.6-520.603z" />
<glyph unicode="&#xe934;" glyph-name="check" horiz-adv-x="983" d="M860.16 654.907l-491.52-491.521-225.28 225.28 57.754 57.754 167.526-167.117 433.766 433.358 57.754-57.754z" />
<glyph unicode="&#xe935;" glyph-name="calendar-month-outline" horiz-adv-x="983" d="M286.72 450.109h81.92v-81.92h-81.92v81.92zM860.16 695.87v-573.44c0-21.725-8.63-42.562-23.994-57.926s-36.2-23.994-57.926-23.994h-573.44c-45.466 0-81.92 36.864-81.92 81.92v573.44c0 21.727 8.631 42.563 23.994 57.926s36.2 23.994 57.926 23.994h40.96v81.92h81.92v-81.92h327.68v81.92h81.92v-81.92h40.96c21.725 0 42.562-8.631 57.926-23.994s23.994-36.2 23.994-57.926zM204.8 613.95h573.44v81.92h-573.44v-81.92zM778.24 122.429v409.6h-573.44v-409.6h573.44zM614.4 368.189v81.92h81.92v-81.92h-81.92zM450.56 368.189v81.92h81.92v-81.92h-81.92zM286.72 286.269h81.92v-81.92h-81.92v81.92zM614.4 204.349v81.92h81.92v-81.92h-81.92zM450.56 204.349v81.92h81.92v-81.92h-81.92z" />
<glyph unicode="&#xe936;" glyph-name="calendar-month" horiz-adv-x="983" d="M368.64 532.029v-81.92h-81.92v81.92h81.92zM532.48 532.029v-81.92h-81.92v81.92h81.92zM696.32 532.029v-81.92h-81.92v81.92h81.92zM778.24 818.75c21.725 0 42.562-8.631 57.926-23.994s23.994-36.2 23.994-57.926v-573.44c0-21.725-8.63-42.562-23.994-57.926s-36.2-23.994-57.926-23.994h-573.44c-45.466 0-81.92 36.864-81.92 81.92v573.44c0 21.727 8.631 42.563 23.994 57.926s36.2 23.994 57.926 23.994h40.96v81.92h81.92v-81.92h327.68v81.92h81.92v-81.92h40.96zM778.24 163.389v450.56h-573.44v-450.56h573.44zM368.64 368.189v-81.92h-81.92v81.92h81.92zM532.48 368.189v-81.92h-81.92v81.92h81.92zM696.32 368.189v-81.92h-81.92v81.92h81.92z" />
<glyph unicode="&#xe937;" glyph-name="bookmark-outline" horiz-adv-x="983" d="M696.32 204.349l-204.8 89.293-204.8-89.293v532.48h409.6v-532.48zM696.32 818.75h-409.6c-21.726 0-42.563-8.631-57.926-23.994s-23.994-36.2-23.994-57.926v-655.36l286.72 122.88 286.72-122.88v655.36c0 45.466-36.864 81.92-81.92 81.92z" />
<glyph unicode="&#xe938;" glyph-name="at" horiz-adv-x="983" d="M491.52 327.229c33.178 0 61.44 12.288 86.426 36.454 24.166 24.986 36.454 53.248 36.454 86.426s-12.288 61.44-36.454 86.426c-24.986 24.167-53.248 36.455-86.426 36.455s-61.44-12.288-86.426-36.455c-24.166-24.986-36.454-53.248-36.454-86.426s12.288-61.44 36.454-86.426c24.986-24.166 53.248-36.454 86.426-36.454zM491.52 859.71c112.64 0 208.896-40.96 288.768-120.832s120.832-176.128 120.832-288.768v-59.392c0-40.96-14.336-75.776-40.96-104.448-28.672-27.443-61.44-40.96-102.4-40.96-49.152 0-89.702 20.48-120.422 61.44-40.96-40.96-89.293-61.44-145.818-61.44-56.115 0-104.448 20.48-144.998 59.802-39.322 40.55-59.802 88.474-59.802 144.998 0 56.115 20.48 104.448 59.802 144.999 40.55 39.322 88.883 59.802 144.998 59.802 56.525 0 104.448-20.48 144.998-59.802 39.322-40.55 59.802-88.884 59.802-144.999v-59.392c0-16.794 6.554-31.539 18.842-44.237s26.624-19.251 42.598-19.251c17.203 0 31.539 6.554 43.827 19.251s17.613 27.443 17.613 44.237v59.392c0 89.702-31.539 166.708-96.256 231.424s-141.722 96.256-231.424 96.256c-89.702 0-166.707-31.539-231.424-96.256s-96.256-141.722-96.256-231.424c0-89.702 31.539-166.707 96.256-231.424s141.722-96.256 231.424-96.256h204.8v-81.92h-204.8c-112.64 0-208.896 40.96-288.768 120.832s-120.832 176.128-120.832 288.768c0 112.64 40.96 208.896 120.832 288.768s176.128 120.832 288.768 120.832z" />
<glyph unicode="&#xe939;" glyph-name="account-outline" horiz-adv-x="983" d="M491.52 777.79c43.454 0 85.127-17.261 115.851-47.988 30.728-30.726 47.989-72.399 47.989-115.852s-17.261-85.128-47.989-115.852c-30.724-30.728-72.397-47.989-115.851-47.989s-85.126 17.261-115.852 47.989c-30.726 30.724-47.988 72.399-47.988 115.852s17.262 85.127 47.988 115.852c30.726 30.726 72.398 47.988 115.852 47.988zM491.52 695.87c-21.725 0-42.562-8.631-57.926-23.994s-23.994-36.2-23.994-57.926c0-21.726 8.63-42.563 23.994-57.926s36.2-23.994 57.926-23.994 42.562 8.63 57.926 23.994c15.364 15.363 23.994 36.2 23.994 57.926s-8.63 42.563-23.994 57.926c-15.364 15.363-36.2 23.994-57.926 23.994zM491.52 409.149c109.363 0 327.68-54.477 327.68-163.84v-122.88h-655.36v122.88c0 109.363 218.317 163.84 327.68 163.84zM491.52 331.325c-121.651 0-249.856-59.802-249.856-86.016v-45.056h499.712v45.056c0 26.214-128.205 86.016-249.856 86.016z" />
<glyph unicode="&#xe93a;" glyph-name="account" horiz-adv-x="983" d="M491.52 777.79c43.454 0 85.127-17.261 115.851-47.988 30.728-30.726 47.989-72.399 47.989-115.852s-17.261-85.128-47.989-115.852c-30.724-30.728-72.397-47.989-115.851-47.989s-85.126 17.261-115.852 47.989c-30.726 30.724-47.988 72.399-47.988 115.852s17.262 85.127 47.988 115.852c30.726 30.726 72.398 47.988 115.852 47.988zM491.52 368.189c181.043 0 327.68-73.318 327.68-163.84v-81.92h-655.36v81.92c0 90.522 146.637 163.84 327.68 163.84z" />
</font>
</defs>
</svg>
